# xmcd
#
# Track frame offsets: 
#        150
#        27843
#        51940
#        74764
#        91678
#        113550
#        136891
#        153727
#        175783
#
# Disc length: 2590 seconds
#
# Revision: 0
# Processed by: cddbd v1.5.2PL0 Copyright (c) Steve Scherf et al.
# Submitted via: ExactAudioCopy v0.99pb4
#
DISCID=730a1c09
DTITLE=Deco - Fresh Idea
DYEAR=1983
DGENRE=Soul
TTITLE0=Fresh Idea
TTITLE1=I'll Be There
TTITLE2=I'm So Glad I Met You
TTITLE3=Someone Special
TTITLE4=Let This Be Your Night
TTITLE5=Burned By A Bad Match
TTITLE6=Live My Fantasy
TTITLE7=Delicious
TTITLE8=Let's Pretend
EXTD=
EXTT0=
EXTT1=
EXTT2=
EXTT3=
EXTT4=
EXTT5=
EXTT6=
EXTT7=
EXTT8=
PLAYORDER=
